<?xml version="1.0" standalone="no"?>
<!DOCTYPE svg PUBLIC "-//W3C//DTD SVG 20010904//EN"
 "http://www.w3.org/TR/2001/REC-SVG-20010904/DTD/svg10.dtd">
<svg version="1.0" xmlns="http://www.w3.org/2000/svg"
 width="125.000000pt" height="125.000000pt" viewBox="0 0 125.000000 125.000000"
 preserveAspectRatio="xMidYMid meet">
<metadata>
Created by potrace 1.11, written by Peter Selinger 2001-2013
</metadata>
<g transform="translate(0.000000,125.000000) scale(0.100000,-0.100000)"
fill="#000000" stroke="none">
<path d="M464 1111 c-26 -11 -77 -73 -138 -167 l-45 -71 -43 8 c-112 21 -195
3 -222 -50 -46 -88 10 -177 139 -221 82 -28 105 -27 106 8 2 23 2 24 6 5 2
-13 -4 -35 -15 -50 -10 -16 -19 -35 -20 -43 -2 -33 -9 -67 -17 -79 -4 -8 -9
-32 -11 -54 -3 -32 1 -44 20 -62 l23 -22 -52 -45 c-50 -45 -89 -104 -79 -120
3 -5 24 3 48 17 56 33 126 33 236 0 109 -33 152 -32 244 5 104 42 171 47 273
21 45 -12 92 -21 106 -21 29 0 47 19 38 40 -13 31 -64 100 -74 100 -7 0 -6 5
2 13 10 10 15 9 24 -3 40 -50 96 -46 142 8 79 94 93 143 84 297 0 11 2 34 5
51 8 36 -15 97 -44 117 -11 7 -23 29 -27 48 -7 40 -47 96 -74 104 -10 4 -19
15 -19 26 0 24 -76 99 -100 99 -10 0 -31 7 -46 15 -39 20 -66 19 -122 -5 -45
-20 -50 -20 -97 -4 -47 15 -91 24 -190 38 -22 3 -50 2 -61 -3z m73 -33 c15 -6
51 -14 78 -17 48 -6 50 -8 59 -44 8 -31 6 -42 -11 -65 -11 -15 -23 -37 -27
-49 -10 -30 -86 -45 -204 -41 l-93 3 46 90 c68 133 88 150 152 123z m403 -18
c0 -5 9 -10 21 -10 38 0 109 -76 94 -100 -3 -4 9 -13 25 -20 41 -17 70 -60 70
-103 0 -27 5 -37 20 -42 11 -3 26 -21 34 -38 17 -35 19 -97 3 -97 -5 0 -6 -8
-2 -17 9 -23 13 -85 6 -97 -2 -6 -6 -31 -7 -57 -2 -38 -11 -59 -44 -103 -44
-58 -72 -75 -94 -57 -7 6 -16 8 -19 4 -7 -6 -12 27 -9 61 2 12 -3 16 -13 12
-10 -3 -15 1 -15 14 0 10 -5 22 -11 26 -7 4 -9 21 -6 40 4 21 2 34 -5 34 -6 0
-8 11 -6 25 3 14 1 25 -4 25 -16 0 -47 44 -48 66 0 37 -38 124 -83 192 -36 54
-74 73 -143 73 l-54 0 22 32 c34 47 97 106 138 127 37 20 130 27 130 10z
m-817 -210 c-18 -4 -45 -15 -60 -25 -27 -18 -27 -18 -13 -1 18 22 47 35 80 34
21 0 20 -1 -7 -8z m517 -9 c-8 -5 -33 -12 -55 -15 l-40 -6 45 14 c53 17 71 19
50 7z m-101 -27 c8 -7 -163 -2 -194 6 -16 3 20 5 80 2 61 -3 112 -6 114 -8z
m153 -34 c22 -22 28 -35 22 -48 -11 -24 -8 -82 5 -95 17 -17 13 -59 -9 -102
-11 -22 -20 -44 -20 -50 0 -13 -41 -54 -53 -53 -4 0 -21 -5 -37 -12 -24 -10
-33 -10 -45 0 -19 16 -19 36 0 44 33 12 11 22 -50 21 -68 0 -75 -4 -49 -29 18
-19 10 -36 -17 -36 -11 0 -24 11 -32 27 l-12 27 -6 -30 -7 -29 -1 30 c-1 26 4
33 42 49 46 20 115 23 146 6 11 -5 29 -10 40 -10 12 0 21 -4 21 -10 0 -5 5
-10 11 -10 5 0 8 4 5 8 -3 5 4 16 15 25 11 10 17 23 13 29 -6 9 -9 9 -12 0 -2
-7 -8 -12 -14 -12 -12 0 0 38 23 72 11 14 19 39 18 55 l-1 28 -10 -30 c-6 -16
-19 -41 -29 -54 -11 -13 -19 -34 -19 -47 0 -13 -2 -24 -5 -24 -14 0 -73 64
-69 74 3 7 -3 19 -12 27 -16 12 -17 12 -11 -3 5 -13 1 -18 -11 -18 -10 0 -23
-5 -28 -10 -13 -13 -44 -3 -44 14 0 6 5 31 11 54 5 24 7 59 3 78 -5 27 -9 32
-22 25 -11 -6 -26 -4 -45 6 -26 13 -31 13 -46 -1 -21 -19 -31 -13 -24 14 4 17
13 18 96 13 51 -2 117 0 147 5 84 15 89 14 122 -18z m-397 -63 c-1 -23 -24
-71 -25 -50 0 6 5 15 10 18 6 4 8 11 4 16 -5 9 1 39 9 39 1 0 2 -10 2 -23z
m120 -19 c17 -3 20 -10 18 -43 -4 -66 -8 -81 -31 -111 -19 -26 -21 -27 -22 -8
0 12 -9 33 -20 47 -20 25 -25 63 -14 104 6 21 34 36 44 22 3 -4 14 -8 25 -11z
m311 -224 c-4 -9 -9 -15 -11 -12 -3 3 -3 13 1 22 4 9 9 15 11 12 3 -3 3 -13
-1 -22z m-20 -51 c-4 -16 -2 -43 3 -60 12 -40 7 -42 -11 -5 -10 19 -12 37 -6
60 10 39 22 43 14 5z m-74 -30 c-6 -10 -23 -29 -38 -43 -25 -22 -25 -21 4 13
18 21 32 43 32 49 0 6 3 9 6 6 3 -4 1 -15 -4 -25z m-202 -83 c0 -5 -2 -10 -4
-10 -3 0 -8 5 -11 10 -3 6 -1 10 4 10 6 0 11 -4 11 -10z m50 6 c0 -2 -8 -10
-17 -17 -16 -13 -17 -12 -4 4 13 16 21 21 21 13z m295 -33 c38 -38 99 -39 126
-1 15 20 25 25 43 20 44 -13 100 -102 64 -102 -7 0 -52 10 -101 22 -81 20 -95
21 -164 9 -41 -7 -96 -21 -121 -32 -24 -11 -47 -17 -49 -15 -3 3 17 27 45 55
41 41 81 64 123 70 4 1 19 -11 34 -26z m-255 -9 c0 -2 -9 0 -20 6 -11 6 -20
13 -20 16 0 2 9 0 20 -6 11 -6 20 -13 20 -16z m-104 -18 c43 -20 109 -74 101
-83 -5 -4 -134 25 -184 42 -32 11 -64 15 -98 11 l-50 -6 34 29 c54 47 104 48
197 7z"/>
<path d="M730 964 c-20 -9 -50 -35 -50 -44 0 -5 17 1 37 11 49 25 116 24 171
-3 58 -28 150 -119 191 -188 18 -30 29 -44 25 -30 -9 34 -69 128 -108 168 -54
58 -110 84 -184 88 -37 2 -74 1 -82 -2z"/>
<path d="M557 774 c-18 -9 -39 -13 -54 -9 -22 5 -24 3 -18 -12 4 -10 11 -30
17 -45 5 -15 17 -27 26 -26 9 0 28 -4 42 -8 l25 -7 -25 22 c-22 19 -22 21 -5
17 11 -3 34 -2 50 3 l30 9 -35 15 c-25 12 -29 16 -14 17 11 0 25 -5 31 -11 6
-6 21 -9 34 -7 21 3 19 5 -17 31 -46 31 -49 32 -87 11z"/>
<path d="M490 635 c0 -8 5 -15 10 -15 6 0 10 7 10 15 0 8 -4 15 -10 15 -5 0
-10 -7 -10 -15z"/>
<path d="M394 675 c-16 -12 -16 -14 -3 -15 9 0 22 7 29 15 16 19 0 19 -26 0z"/>
</g>
</svg>
