<?xml version="1.0" standalone="no"?>
<!DOCTYPE svg PUBLIC "-//W3C//DTD SVG 20010904//EN"
 "http://www.w3.org/TR/2001/REC-SVG-20010904/DTD/svg10.dtd">
<svg version="1.0" xmlns="http://www.w3.org/2000/svg"
 width="125.000000pt" height="125.000000pt" viewBox="0 0 125.000000 125.000000"
 preserveAspectRatio="xMidYMid meet">
<metadata>
Created by potrace 1.11, written by Peter Selinger 2001-2013
</metadata>
<g transform="translate(0.000000,125.000000) scale(0.100000,-0.100000)"
fill="#000000" stroke="none">
<path d="M464 1111 c-26 -11 -77 -73 -138 -167 l-45 -71 -43 8 c-112 21 -195
3 -222 -50 -46 -88 10 -177 139 -221 82 -28 105 -27 106 8 2 23 2 24 6 5 2
-13 -4 -35 -15 -50 -10 -16 -19 -35 -20 -43 -2 -33 -9 -67 -17 -79 -4 -8 -9
-32 -11 -54 -3 -32 1 -44 20 -62 l23 -22 -52 -45 c-50 -45 -89 -104 -79 -120
3 -5 24 3 48 17 56 33 126 33 236 0 109 -33 152 -32 244 5 104 42 171 47 273
21 45 -12 92 -21 106 -21 29 0 47 19 38 40 -13 31 -64 100 -74 100 -7 0 -6 5
2 13 10 10 15 9 24 -3 40 -50 96 -46 142 8 79 94 93 143 84 297 0 11 2 34 5
51 8 36 -15 97 -44 117 -11 7 -23 29 -27 48 -7 40 -47 96 -74 104 -10 4 -19
15 -19 26 0 24 -76 99 -100 99 -10 0 -31 7 -46 15 -39 20 -66 19 -122 -5 -45
-20 -50 -20 -97 -4 -47 15 -91 24 -190 38 -22 3 -50 2 -61 -3z m-169 -394 c-1
-23 -24 -71 -25 -50 0 6 5 15 10 18 6 4 8 11 4 16 -5 9 1 39 9 39 1 0 2 -10 2
-23z"/>
</g>
</svg>
